<?xml version="1.0" encoding="utf-8"?>
<!-- Generator: Adobe Illustrator 23.0.1, SVG Export Plug-In . SVG Version: 6.00 Build 0)  -->
<svg version="1.1" id="Layer_1" xmlns="http://www.w3.org/2000/svg" xmlns:xlink="http://www.w3.org/1999/xlink" x="0px" y="0px"
	 viewBox="0 0 1000 1000" style="enable-background:new 0 0 1000 1000;" xml:space="preserve">
<style type="text/css">
	.st0{fill:#5C5DA9;}
	.st1{fill:#5CBA47;}
	.st2{fill:#41C2CC;}
</style>
<path class="st0" d="M182.94,882.74c0.45,26.31,23.05,46.88,49.35,46.88h244.07c26.31,0,49.02-20.57,49.35-46.88
	c0.45-26.64-21.13-48.45-47.67-48.45H230.49C203.96,834.29,182.49,855.98,182.94,882.74z"/>
<path class="st0" d="M348.76,728.83c0,26.31,22.48,47.67,50.14,47.67h260.14c27.66,0,50.14-21.36,50.14-47.67
	c0-26.31-22.48-47.67-50.14-47.67H398.9C371.13,681.17,348.76,702.53,348.76,728.83z"/>
<path class="st1" d="M212.84,165.83H63.43c-26.64,0-48.23-21.58-48.23-48.23c0-26.64,21.58-48.23,48.23-48.23h149.41
	c26.64,0,48.23,21.58,48.23,48.23C260.96,144.24,239.48,165.83,212.84,165.83z"/>
<path class="st1" d="M356.96,317.37H207.56c-26.64,0-48.23-21.59-48.23-48.23c0-26.64,21.58-48.23,48.23-48.23h149.41
	c26.64,0,48.23,21.58,48.23,48.23C405.19,295.79,383.61,317.37,356.96,317.37z"/>
<path class="st2" d="M863.42,317.37H492.21c-26.64,0-48.23-21.59-48.23-48.23c0-26.64,21.59-48.23,48.23-48.23h371.22
	c26.64,0,48.23,21.58,48.23,48.23C911.54,295.79,890.07,317.37,863.42,317.37z"/>
<path class="st0" d="M746.17,471.28H374.95c-26.64,0-48.23-21.59-48.23-48.23c0-26.65,21.59-48.23,48.23-48.23h371.22
	c26.64,0,48.23,21.58,48.23,48.23C794.28,449.69,772.7,471.28,746.17,471.28z"/>
<path class="st2" d="M936.61,624.39H565.39c-26.65,0-48.23-21.59-48.23-48.23c0-26.64,21.58-48.23,48.23-48.23h371.21
	c26.65,0,48.23,21.59,48.23,48.23C984.84,602.81,963.25,624.39,936.61,624.39z"/>
<path class="st0" d="M564.61,165.83H351.68c-26.65,0-48.23-21.58-48.23-48.23c0-26.64,21.58-48.23,48.23-48.23h212.92
	c26.64,0,48.23,21.58,48.23,48.23C612.83,144.24,591.25,165.83,564.61,165.83z"/>
<path class="st2" d="M747.63,165.83H702.1c-26.65,0-48.23-21.58-48.23-48.23c0-26.64,21.58-48.23,48.23-48.23h45.53
	c26.64,0,48.23,21.58,48.23,48.23C795.86,144.24,774.27,165.83,747.63,165.83z"/>
<path class="st2" d="M932.11,471.28h-45.53c-26.65,0-48.23-21.59-48.23-48.23c0-26.65,21.58-48.23,48.23-48.23h45.53
	c26.64,0,48.23,21.58,48.23,48.23C980.34,449.69,958.75,471.28,932.11,471.28z"/>
<path class="st2" d="M863.42,777.51h-65.77c-26.64,0-48.23-21.59-48.23-48.23s21.59-48.23,48.23-48.23h65.77
	c26.64,0,48.23,21.59,48.23,48.23C911.54,755.93,890.07,777.51,863.42,777.51z"/>
<path class="st1" d="M100.76,929.95H63.43c-26.64,0-48.23-21.59-48.23-48.23c0-26.64,21.58-48.23,48.23-48.23h37.32
	c26.64,0,48.23,21.59,48.23,48.23C148.99,908.37,127.4,929.95,100.76,929.95z"/>
<path class="st2" d="M747.63,930.63H613.96c-26.64,0-48.23-21.59-48.23-48.23c0-26.64,21.59-48.23,48.23-48.23h133.67
	c26.64,0,48.23,21.59,48.23,48.23C795.86,909.04,774.27,930.63,747.63,930.63z"/>
</svg>
