<?xml version="1.0" encoding="utf-8"?>
<!-- Generator: Adobe Illustrator 23.0.1, SVG Export Plug-In . SVG Version: 6.00 Build 0)  -->
<svg version="1.1" id="Слой_1" xmlns="http://www.w3.org/2000/svg" xmlns:xlink="http://www.w3.org/1999/xlink" x="0px" y="0px"
	 viewBox="0 0 3200 2000" style="enable-background:new 0 0 3200 2000;" xml:space="preserve">
<style type="text/css">
	.st0{fill:#EBF3FA;}
	.st1{fill:#DFEBFD;}
	.st2{fill:#BED7FB;}
	.st3{fill:#9EC3F6;}
	.st4{fill:#CDE0FB;}
	.st5{fill:#FFFFFF;}
	.st6{fill:#ADCBF9;}
	.st7{fill:#D86713;}
	.st8{fill:#F99746;}
	.st9{fill:#EE9849;}
	.st10{fill:#F1A34F;}
	.st11{opacity:0.4;fill:#D86713;}
	.st12{fill:#699DEE;}
	.st13{fill:#E9F3FE;}
	.st14{fill:#AFCDFB;}
	.st15{fill:#2B478B;}
	.st16{fill:#233862;}
	.st17{fill:#C65447;}
	.st18{fill:#FFB27D;}
	.st19{fill:#E2915A;}
	.st20{fill:#FCECDB;}
	.st21{fill:#548EE2;}
	.st22{fill:#F4D2B8;}
	.st23{fill:#568CDB;}
	.st24{fill:#B5453C;}
	.st25{fill:#ED7D2B;}
	.st26{fill:#ED975D;}
	.st27{fill:#EBF3FF;}
	.st28{fill:#2E3552;}
</style>
<g>
	<path class="st0" d="M249.8,1899.85c0,0-368.93-416.77-62.39-867.98c271.98-400.35,589.09-372.98,821.74-210.52
		c99.09,69.2,384.78,8.53,627.94-398.84c331.6-555.54,1481.04-218.6,1271.46,636.11c-101.42,413.62,308.67,428.65,99.71,842.11
		L249.8,1899.85z"/>
	<g>
		<polygon class="st1" points="547.9,1335.27 788.19,1609.98 527.1,1862.81 286.8,1588.1 		"/>
		<polygon class="st2" points="547.9,1335.27 596.29,1390.6 335.2,1643.43 286.8,1588.1 		"/>
	</g>
	<g>
		<polygon class="st3" points="1310.42,253.1 1489.45,279.97 1370.64,194.77 1364.6,222.09 1321.06,230.38 		"/>
		<polygon class="st4" points="1489.45,279.97 1340.47,199.16 1194.45,191.43 		"/>
		<polygon class="st4" points="1370.64,194.77 1489.45,279.97 1397.48,146.82 		"/>
	</g>
	<g>
		<path class="st5" d="M2311.55,624.72l-45.03,34l-45.27-33.63c10.03-14.85,26.6-24.67,45.27-24.67
			C2285.07,600.41,2301.52,609.99,2311.55,624.72z"/>
		<g>
			<path class="st5" d="M2266.52,517.56c-45.27,0-85.28,23.69-109.55,59.9l28.58,21.11c17.97-26.76,47.6-44.19,80.96-44.19
				c33.13,0,62.53,17.18,80.5,43.58l28.47-21.48C2351.1,540.76,2311.32,517.56,2266.52,517.56z"/>
		</g>
		<g>
			<path class="st5" d="M2266.52,360.07c-95.78,0-180.48,50.08-231.81,126.68l28.58,21.11c45.03-67.02,119.35-110.96,203.23-110.96
				c83.18,0,157.03,43.21,202.18,109.37l28.35-21.48C2445.6,409.29,2361.48,360.07,2266.52,360.07z"/>
		</g>
		<g>
			<path class="st5" d="M2266.52,446.24c-68.13,0-128.56,35.47-165.31,89.85l28.58,21.11c30.45-44.8,80.38-74.14,136.73-74.14
				c55.88,0,105.46,28.85,136.03,73.04l28.35-21.36C2394.03,481.1,2334.07,446.24,2266.52,446.24z"/>
		</g>
	</g>
	<path class="st6" d="M1332.43,831.02l-41.28-1c13.26,18.09,16.24,34.75,7.99,48.85c-8.26,14.38-28.02,26.21-57.53,35.18
		c22.34-62.52,33.57-128.46,33.57-196.11c0-146.3-54.1-289.51-156.21-396.64c-98.83-103.99-232.43-164.35-376.98-164.35
		c-81.17,0-159.6,18.93-230.93,55.12c-0.02,0.01-0.05,0.02-0.07,0.04c-22.93-7.36-45.27-13.4-66.82-17.99
		c-108.79-23.23-185.99-7.17-217.35,45.2c-29.84,49.82-13.6,124.8,45.62,212.26c-0.01,0.01-0.01,0.03-0.02,0.04
		c-13.23,25.72-25.97,56.23-35.33,85.45c-111.27,6.98-170.83,27.58-192.48,64.9C19.42,645.4,53.8,703.7,163.85,760.38
		c15.16,7.83,31.4,15.52,48.46,23.21c13.18,121.87,65.95,240.01,152.55,331.13c49,51.41,105.99,91.86,169.47,120.2
		c194.48,86.31,426.32,45.9,584.63-120.2c47.65-50.13,85.41-108.52,112.08-173.18c54.28-11.82,90.02-30.34,104.23-54.83
		C1345.16,869.76,1343.94,850.96,1332.43,831.02z M1205.06,922.88c-36.14,6.84-81.22,10.82-133.87,11.39
		c-81.71,1.05-175.55-5.74-274.44-19.45c8.32-19.06,16.48-38.64,24.43-58.67c30.69,10.8,60.47,19.36,88.87,25.42
		c32.54,6.95,62.23,10.38,88.74,10.38c62.13,0,106.64-18.87,128.62-55.58c3.62-6.05,6.57-12.46,8.84-19.23h-31.67
		c-0.52,1.01-1.08,2.02-1.67,2.99c-16.33,27.27-52.82,41.36-104.05,41.35c-24.5,0-52.4-3.22-83.06-9.77
		c-26.72-5.7-54.75-13.71-83.64-23.8c7.63-20.07,15.04-40.53,22.2-61.3c19.3-56,35.83-111.52,49.2-164.83
		c108.34,16.8,221.53,17.31,330.26,8.68c6.88,35.09,10.36,71.01,10.36,107.49C1244.18,789.01,1231.05,857.94,1205.06,922.88z
		 M545.26,1201c-15.4-5.88-23.22-29.14-27.07-47.62c-6.08-29.2-7.18-70.22-3.18-118.61c2.02-24.47,5.27-50.5,9.65-77.72
		c63.13,17.7,125.65,40.47,186.53,67.91c-13.71,24.88-27.58,47.95-41.44,68.86c-26.42,39.84-52.25,70.58-74.71,88.89
		C580.83,1194.3,560.66,1206.87,545.26,1201z M725.14,998.92c-63.72-28.89-129.24-52.77-195.4-71.2
		c2.33-12.63,4.89-25.49,7.67-38.54c18.4,4.4,37.06,8.66,55.95,12.76c55.29,11.9,110.45,22,164.44,30.17
		C747.11,955.4,736.19,977.71,725.14,998.92z M605.54,880.87c-21.36-4.62-42.42-9.46-63.11-14.47c9.74-42.64,21.71-87.1,35.68-132.4
		c72.62,46.97,146.46,85.17,216.39,112.28c-8.77,22.03-17.78,43.52-26.98,64.31C714.4,902.57,660.06,892.63,605.54,880.87z
		 M428.19,305.23c40.36,87.01,118.15,158.69,201.86,206.25c-20.28,46.5-39.59,96.12-57.36,147.64c-3.31,9.61-6.53,19.2-9.68,28.77
		c-106.08-72.65-195.9-156.02-254.82-236.7c-0.01-0.01-0.02-0.02-0.02-0.03C339.26,395.33,379.78,346.06,428.19,305.23z
		 M881.79,224.72c15.4,5.88,23.22,29.14,27.07,47.61c6.08,29.2,7.18,70.22,3.18,118.61c-4.38,52.97-14.46,113.14-29.47,177.2
		c-73.78-13.36-147.5-35.37-215.38-70.04c28.93-63.48,59.52-120.08,90.1-166.21c26.42-39.84,52.25-70.58,74.71-88.89
		c11.72-9.55,27.49-19.78,41.3-19.78C876.24,223.22,879.09,223.69,881.79,224.72z M875.55,597.01
		c-13.02,51.55-29.06,105.24-47.75,159.45c-7.2,20.9-14.66,41.47-22.33,61.63c-70.2-27.12-144.71-65.9-217.95-113.81
		c3.79-11.64,7.69-23.33,11.73-35.03c17.36-50.37,36.2-98.84,55.96-144.24C724.34,560.27,799.24,583.02,875.55,597.01z
		 M1097.04,344.23c65.14,68.53,108.35,150.85,130.2,236.92c-115.77,8.91-221.86,6.11-316.69-8.33
		c15.05-64.69,25.18-125.55,29.62-179.3c4.91-59.36,4.31-129.67-18.57-169.23C987.88,251.07,1047.07,291.5,1097.04,344.23z
		 M741.98,189.42c34.79,0,69.01,3.68,102.46,10.99c-39.46,18.07-79.74,68.36-110.32,114.48c-31.29,47.2-62.55,104.97-92.06,169.63
		c-79.66-45.54-154.9-115.35-190.87-197.59C535.18,224.08,636.17,189.42,741.98,189.42z M251.31,255.55
		c16.33-27.27,52.82-41.35,104.05-41.35c24.5,0,52.4,3.22,83.06,9.77c11.64,2.48,23.53,5.4,35.62,8.75c0.01,0,0.02,0.01,0.03,0.01
		c-73.15,44.51-137.58,108.93-185.55,189.68c-0.01,0.01-0.02,0.03-0.03,0.04C243.22,351.73,229.61,291.76,251.31,255.55z
		 M293.12,480.38c0-0.01,0.01-0.02,0.01-0.03c62.04,81.59,153.48,164.99,260.32,237.33c-15.15,48.51-28.07,96.19-38.51,141.88
		c-88.58-22.55-191.55-54.44-272.86-90.64c-6.74-70.94,0.6-142.76,20.85-210.5C270.8,532.16,281.22,505.08,293.12,480.38z
		 M188.49,743.57c-95.97-49.28-139.83-96.85-120.2-130.6c15.84-27.35,73.5-45.86,161.76-52.7c-17.79,63.18-23.98,128.87-20.3,193.83
		C202.43,750.7,195.39,747.14,188.49,743.57z M509.9,882.45c-2.74,12.85-5.26,25.51-7.58,37.97c-6.16-1.57-12.32-3.11-18.49-4.59
		c-104.18-24.95-182.36-30.03-218.6-30.89c-8.98-28.45-15.58-57.55-19.76-87.25C316.46,826.42,396.35,853.97,509.9,882.45z
		 M275.73,915.09c38.65,1.64,110.31,7.8,201.84,29.72c6.55,1.57,13.09,3.21,19.64,4.89c-4.71,28.91-8.19,56.54-10.33,82.5
		c-4.07,49.19-4.36,105.91,8.69,146.42c-39.69-23.51-76.09-52.59-108.76-86.97C338.1,1040.42,300.63,980.43,275.73,915.09z
		 M589.68,1221.73c37.16-20.49,74.49-67.55,103.24-110.91c14.83-22.37,29.65-47.12,44.28-73.83
		c84.35,40.19,165.45,89.56,241.64,147.09C853.25,1254.69,711.83,1262.68,589.68,1221.73z M1097.04,1091.65
		c-27.76,29.29-58.34,54.75-91.36,76.19c-80.03-61.54-165.54-114.22-254.62-156.86c12.25-23.61,24.32-48.55,36.1-74.58
		c81.54,11.37,159.93,18.19,231.5,19.96c18.68,0.57,36.82,0.57,54.42,0.43c45.62-0.57,86.23-3.42,121.01-8.54
		C1169.73,1001.36,1137.11,1049.49,1097.04,1091.65z"/>
	<g>
		<g>
			<path class="st7" d="M1085.65,918.57l-73.74,922.45c0,0-7.73,55.92,31.81,56.02c65,0.16,323.52,0,323.52,0
				s-48.92-11.64-48.33-37.83c0.7-30.87,86.18-949.37,86.18-949.37L1085.65,918.57z"/>
			<path class="st8" d="M1388.21,1880.31c-12.78,0.04-259.7,0.85-323,0c-27.59-0.36-32.42-25.81-32.65-42.28
				c-0.11-7.89,0.84-13.73,0.84-13.73l1.92-23.98l4.89-61.11l4.32-53.99l5.55-69.38l4.67-58.56l52.39-655.47l319.44-8.72
				c0,0-36,384.39-61.47,664.19c-2.84,31.18-5.55,61.07-8.05,88.97c-0.81,8.91-1.59,17.62-2.35,26.1
				c-2.36,26.47-4.52,50.78-6.4,72.25c-0.99,11.31-1.9,21.83-2.73,31.46c-3.25,37.73-5.15,61.83-5.18,66.41
				c-0.01,2.67,0.2,5.16,0.62,7.47C1346.26,1879.34,1383.41,1880.31,1388.21,1880.31z"/>
			<polygon class="st8" points="309.86,416.61 489.47,1175.67 514.06,1279.63 597.71,1633.18 2151.84,1633.18 1843.51,416.61 			"/>
			<polygon class="st9" points="309.86,416.61 284.97,425.34 564.62,1659.59 597.72,1633.18 			"/>
			<polygon class="st7" points="564.62,1659.59 2109.18,1659.59 2151.83,1633.18 597.72,1633.18 			"/>
			
				<rect x="1107.03" y="1880.67" transform="matrix(-1 -1.224647e-16 1.224647e-16 -1 2548.4705 3778.0688)" class="st10" width="334.42" height="16.72"/>
			<polygon class="st10" points="2076.55,1409.01 1824.37,432.69 307.38,432.69 307.38,416.61 1843.51,416.61 2094.84,1406.84 			
				"/>
			<polygon class="st7" points="1356.43,1659.58 1354.71,1672.36 1040.2,1739.22 1044.52,1685.23 1046.57,1659.58 			"/>
			<path class="st11" d="M1388.21,1880.31c-12.78,0.04-259.7,0.85-323,0c-27.59-0.36-32.42-25.81-32.65-42.28l313.02-61.96
				c-3.25,37.73-5.15,61.83-5.18,66.41c-0.01,2.67,0.2,5.16,0.62,7.47C1346.26,1879.34,1383.41,1880.31,1388.21,1880.31z"/>
			<polygon class="st11" points="1280.42,1386.9 597.72,1633.18 514.06,1279.63 			"/>
			<polygon class="st12" points="309.86,416.61 1843.51,416.61 2092.34,1394.35 533.31,1394.35 			"/>
		</g>
		<path class="st7" d="M1415.98,1517.95c-4.43-23.98-26.5-43.42-49.29-43.42c-22.79,0-37.67,19.44-33.24,43.42
			c4.43,23.98,26.5,43.42,49.29,43.42C1405.52,1561.36,1420.41,1541.93,1415.98,1517.95z"/>
		<polygon class="st13" points="2020.02,1351.98 584.06,1351.98 421.44,670.38 408.98,618.11 398.34,573.53 389.82,537.83 
			373.39,468.98 1788.65,468.98 1789.64,472.77 1806.68,537.83 1816.03,573.53 1827.73,618.11 1841.42,670.38 		"/>
		<polygon class="st13" points="2020.02,1354.31 584.06,1354.31 421.44,672.71 408.98,620.44 398.34,575.86 389.82,540.16 
			373.39,471.31 1788.65,471.31 1789.64,475.1 1806.68,540.16 1816.03,575.86 1827.73,620.44 1841.42,672.71 		"/>
		<polygon class="st14" points="1806.68,537.83 389.82,537.83 373.39,468.98 1788.11,468.98 1789.64,472.77 		"/>
		<g>
			<path class="st13" d="M412.76,503.41c-1.71-7.22,2.46-13.07,9.32-13.07c6.86,0,13.81,5.85,15.52,13.07
				c1.71,7.22-2.46,13.07-9.32,13.07C421.42,516.48,414.47,510.62,412.76,503.41z"/>
			
				<ellipse transform="matrix(0.7366 -0.6763 0.6763 0.7366 -217.6022 448.0406)" class="st13" cx="466.45" cy="503.41" rx="11.26" ry="14.42"/>
			<path class="st13" d="M498.47,503.41c-1.71-7.22,2.46-13.07,9.32-13.07c6.86,0,13.81,5.85,15.52,13.07
				c1.71,7.22-2.46,13.07-9.32,13.07C507.13,516.48,500.18,510.62,498.47,503.41z"/>
		</g>
		<g>
			<path class="st15" d="M1031.37,1354.31H889.39c-1.36-11.68-2.56-24.02-3.64-36.89c-1.91-23.09-3.37-47.93-4.44-73.77
				c-0.26-5.96-0.48-11.98-0.69-18.03c-0.27-7.71-0.51-15.5-0.72-23.34c-0.35-13.3-0.62-26.76-0.82-40.3
				c-0.01-0.01-0.01-0.04-0.01-0.05c-0.25-17.26-0.37-34.64-0.41-51.95c0-0.01,0-0.01,0-0.01c-0.01-4.32-0.01-8.64-0.01-12.95v-0.01
				c0-4.06,0.01-8.1,0.03-12.13c0.12-37.27,0.66-73.82,1.41-107.81c1.63-75.2,4.28-137.87,5.69-167.99v-0.01
				c0.57-12.37,0.94-19.24,0.94-19.24c0.01,0,0.03,0.01,0.04,0.01c0.32,0.05,2.47,0.47,5.86,1.33c2.49,0.64,5.64,1.51,9.23,2.67
				h0.01c3.24,1.03,6.82,2.3,10.58,3.8c0.01,0,0.02,0,0.04,0.01c6.4,2.59,13.29,5.9,19.77,10.05c0.1,0.05,0.2,0.1,0.3,0.16
				c10.6,6.93,20.18,16.1,24.55,28.22c3.75,10.3,12.52,65.64,23.12,139.13c0.3,2.1,0.59,4.2,0.9,6.34
				c5.6,39.03,11.67,82.82,17.75,127.53c6.45,47.38,12.89,95.78,18.82,140.63C1022.75,1288.15,1027.44,1323.99,1031.37,1354.31z"/>
			<path class="st16" d="M991.61,1354.31H826.34c-3.17-14.35-6.14-28.18-8.77-41.16c-7.26-35.77-12.04-65.09-11.78-80.84
				c0.12-7.38,2.77-13.16,7.32-17.6c3.12-3.05,7.13-5.47,11.84-7.36c13.94-5.57,33.97-6.48,54.95-5.08
				c7.13,0.47,14.35,1.2,21.48,2.11c39.28,5.01,75.74,15.24,75.74,15.24s2.44,10.38,5.32,28.51c2.17,13.6,4.58,31.59,6.37,52.84
				c1.04,12.34,1.88,25.79,2.35,40.12C991.3,1345.41,991.45,1349.82,991.61,1354.31z"/>
			<path class="st17" d="M915.28,1232.52l-1.65,12.56l-8,61l-1.36,10.41l-4.96,37.82H727.07c-1.34-24.99-2.57-49.35-2.81-70.58
				c-0.02-2.36-0.04-4.66-0.04-6.92c0-31.97,2.67-55.68,11.38-61.66c9.87-6.78,42.62-4.92,77.5-0.43c3.48,0.44,6.98,0.92,10.48,1.42
				c20.33,2.88,40.67,6.43,57.02,9.49c8.49,1.59,15.9,3.05,21.66,4.21C910.42,1231.46,915.28,1232.52,915.28,1232.52z"/>
			<path class="st5" d="M724.23,821.26c0,0,94.62-64.37,162.49-31.45c10.81,5.25,23.15,19.89,31.98,30.13
				c24.53,28.44,72.47,480.25,72.47,480.25s-136.08,48.49-266.94-16.46V821.26z"/>
			<path class="st15" d="M892.1,788.17c0,0,95.79,41.3,108.77,73.04s55.14,226.63,55.14,249.48c0,22.85-73.42,5.11-85.24-31.75
				c-9.81-30.61-42.92-124.64-60.38-184.11L892.1,788.17z"/>
			<g>
				<path class="st18" d="M872.21,819.65c-20.91,4.31-51.63-0.28-74.12-15.88c10.15-25.52,14.32-45.67,15.8-58.7
					c0.09-0.69,0.15-1.36,0.22-2.01c0.67-6.76,0.57-11.34,0.26-13.45h54.06c0,0,14.78,7.11,14.78,12.03c0,2.63,0.02,5.14,0.07,7.54
					c0.11,6.54,0.36,12.25,0.68,17.16c1.03,15.96,2.77,23.48,2.77,23.48S893.32,815.29,872.21,819.65z"/>
				<path class="st19" d="M883.95,766.33c-40.96,8.33-64.74-15.22-70.07-21.26c-0.76-0.86-1.15-1.38-1.15-1.38
					c0.43-0.23,0.89-0.43,1.36-0.64c15.25-6.5,49.85-1.33,69.17,6.12C883.38,755.71,883.63,761.42,883.95,766.33z"/>
				<path class="st18" d="M800.51,720.25c7.32,41.45,58.15,40.08,80.11,37.48c6.18-0.72,10.07-1.55,10.07-1.55
					c6.97-1.96,10.86-13.51,12.67-28.64c3.59-29.94-0.94-73.9-5.75-85.14c-7.24-16.92-20.86-35.21-72.05-22.01
					C774.36,633.6,791.11,667.15,800.51,720.25z"/>
				<path class="st16" d="M899.51,619.28c-7-10.19-21.83-22.64-35.3-30.31c-28.94-16.47-65.99,0.52-66.14,0.59
					c-41.81,19.34-52.73,53-30.56,105.42c23.44,55.44,45.76,49.2,45.76,49.2s-4.74-3.1-4.31-20.38c0.02-0.98,0.06-1.8,0.1-2.51
					c0.22-3.54-0.97-7.09-3.49-9.45c-5.19-4.88-7.72-19.63-3.38-23.73c5.25-4.95,12.62,1.06,14.97,5.69
					c2.06,3.27,5.74,4.41,9.18,2.13c13.01-8.65,4.56-25.97,16.99-36.56c12.43-10.59,37.67-1.7,56.32-10.14
					C924.07,639.66,904.78,626.96,899.51,619.28z"/>
			</g>
			<path class="st15" d="M906.23,1354.31H700.2c1.47-44.95,3.37-98.62,5.36-152.96c0.51-14.08,1.04-28.24,1.56-42.27
				c0.24-5.95,0.45-11.86,0.67-17.77c4.55-120.67,9.07-229.64,10.02-235.51c2.17-13.28,4.21-24.59,6.42-34.41
				c6.47-28.59,14.51-44.26,32.06-57.75c1.71-1.37,15.74-8.8,28.1-15.28c10.1-5.27,19.08-9.88,19.35-10.01v-0.01h0.01
				c2.04,1.04,4.29,4.04,6.67,8.48c2.38,4.44,4.88,10.35,7.44,17.25c9.42,25.45,19.59,64.4,26.65,93.49
				c0.01,0.04,0.03,0.07,0.03,0.09c0.01,0.03,0.01,0.04,0.01,0.05c0,0.01,0,0.01,0,0.01c4.55,18.78,7.82,33.4,8.75,37.61
				c1.58,7.08,3.66,20.79,6.12,39.35v0.05c3.33,25.32,7.3,59.67,11.51,98.66v0.01c0.43,4.01,0.87,8.06,1.3,12.15
				c0.5,4.67,1,9.4,1.51,14.18v0.01c0.16,1.54,0.32,3.07,0.47,4.61v0.01c1.62,15.44,3.25,31.36,4.87,47.57c0,0.01,0,0.04,0.01,0.05
				c1.39,13.36,20.64,23.03,21.97,36.63c0.1,0.99,0.2,2.99,0.32,5.78c0.25,5.75,0.54,14.88,0.9,25.44c0.15,4.7,0.31,9.68,0.48,14.77
				c0.75,22.62,1.68,47.41,2.73,59.33c0.05,0.56,0.1,1.28,0.14,2.15c0.12,2.38,0.22,5.88,0.31,10.28
				C906.11,1325.71,906.2,1339.08,906.23,1354.31z"/>
			<path class="st16" d="M765.68,954.45c-0.06,0.28-3.28,122.02,83.76,136.81c87.04,14.79,29.21,18.7,29.21,18.7
				s-163.77-7.32-166.47-11.87C709.48,1093.53,765.68,954.45,765.68,954.45z"/>
			<path class="st16" d="M839.23,1143.52c0,0-1.63,1.22-4.77,3.34c-0.05,0.02-0.11,0.07-0.16,0.1
				c-13.28,8.92-52.69,33.23-110.07,49.53c-6.02,1.72-12.25,3.34-18.66,4.85c0.51-14.08,1.04-28.23,1.56-42.26
				c-7.58-0.63-14.83-1.64-21.57-3.14c0.23-1.85,0.46-3.71,0.69-5.56c7.3-3.15,14.55-6.19,21.55-9.07
				c5.7-2.34,11.21-4.57,16.44-6.64c23.57-9.42,41.04-15.8,41.04-15.8l69.77,23.25L839.23,1143.52z"/>
			<path class="st15" d="M857.69,1141.49c0,0-8.96,2.36-23.24,5.38c-0.05,0-0.1,0.01-0.15,0.03
				c-26.32,5.56-70.56,13.37-110.08,12.95c-5.83-0.07-11.56-0.31-17.11-0.76c-7.58-0.63-14.83-1.64-21.57-3.14
				c-14.45-3.21-26.55-8.63-34.46-17.12c-58.79-63,32.08-289.12,51.19-311.12c22.31-25.69,63.02-34.7,85.5-37.79
				c0.94-0.13,1.84-0.25,2.71-0.36c7.9-0.99,12.98-1.19,13.26-1.21c0.01,0,0.01,0,0.01,0s-1.76,5.96-4.71,16.08
				c-1.15,3.91-2.48,8.45-3.94,13.52c-13.81,47.58-40.45,141.08-52.19,193.81c-4.3,19.3-6.61,33.13-5.56,37.26
				c4.58,18.01,52.08,27.27,82.18,31.36c12.55,1.71,22.08,2.51,24.21,2.68c0.15,0,0.29,0.01,0.44,0.03l1.74,7.51l4.16,18.01
				l4.1,17.69L857.69,1141.49z"/>
			<polygon class="st8" points="1021.66,1249.87 819.76,1240.92 860.72,976.18 1062.62,985.13 			"/>
			<path class="st18" d="M844.18,1083.08c0,0,39.3-2.88,41.27,6.75c4.6,22.47-33.79,40.92-46.22,39.66
				C826.79,1128.23,835.13,1081.58,844.18,1083.08z"/>
			<path class="st18" d="M1051.58,1038.89c0,0-37.6-12.37-41.64-3.47c-9.41,20.74,23.88,48.03,36.25,49.83
				C1058.57,1087.05,1060.71,1039.64,1051.58,1038.89z"/>
			<path class="st16" d="M807.83,775.04c0,0-16.53,8.29-24.82,20.81c0,0,61.81,112.9,61.53,111.85
				C844.26,906.64,823.64,789.51,807.83,775.04z"/>
			<path class="st16" d="M884.81,776.64c5.44,2.16,15.88,13.41,18.24,19.64l7.35,98.57c0,0-15.69-72.34-23.67-105.03
				C884.69,781.49,885.06,778.97,884.81,776.64z"/>
			<path class="st17" d="M927.65,979.15c0,0,1.6-7.34,10.79-6.49c9.19,0.85,60.82,3.53,60.82,3.53s9.96-0.17,9.03,6.54
				L927.65,979.15z"/>
			<path class="st5" d="M868.42,729.6c0,0,6.7,6.43,17.51,4.44c6.41-1.18,10-9.95,10-9.95S883.62,721.75,868.42,729.6z"/>
		</g>
		<g>
			<g>
				<polygon class="st5" points="1825.13,811.99 1675.99,812.57 1627.63,617.76 1776.77,617.18 				"/>
				<g>
					<polygon class="st6" points="1739.78,642.78 1677.25,643.02 1676.53,640.14 1739.07,639.89 					"/>
					<polygon class="st6" points="1749.77,650.79 1671.26,651.09 1670.54,648.21 1749.05,647.9 					"/>
					<g>
						<polygon class="st6" points="1771.35,690.43 1669.38,690.83 1668.66,687.94 1770.64,687.55 						"/>
						<polygon class="st6" points="1773.71,699.93 1671.73,700.33 1671.02,697.44 1773,697.05 						"/>
						<polygon class="st6" points="1776.07,709.43 1674.09,709.82 1673.38,706.94 1775.35,706.55 						"/>
						<polygon class="st6" points="1778.43,718.93 1676.45,719.32 1675.73,716.44 1777.71,716.04 						"/>
						<polygon class="st6" points="1780.79,728.42 1678.81,728.82 1678.09,725.94 1780.07,725.54 						"/>
					</g>
					<g>
						<polygon class="st6" points="1786.52,751.54 1684.55,751.94 1683.83,749.05 1785.81,748.66 						"/>
						<polygon class="st6" points="1788.88,761.04 1686.9,761.43 1686.19,758.55 1788.17,758.15 						"/>
						<polygon class="st6" points="1791.24,770.54 1689.26,770.93 1688.55,768.05 1790.52,767.65 						"/>
						<polygon class="st6" points="1793.6,780.03 1691.62,780.43 1690.9,777.55 1792.88,777.15 						"/>
						<polygon class="st6" points="1795.96,789.53 1693.98,789.93 1693.26,787.05 1795.24,786.65 						"/>
					</g>
				</g>
			</g>
			<g>
				<polygon class="st5" points="1885.23,1054.06 1736.09,1054.64 1687.73,859.83 1836.87,859.25 				"/>
				<g>
					<polygon class="st6" points="1799.88,884.85 1737.34,885.09 1736.63,882.21 1799.16,881.96 					"/>
					<polygon class="st6" points="1809.86,892.86 1731.35,893.16 1730.63,890.28 1809.15,889.97 					"/>
					<g>
						<polygon class="st6" points="1831.45,932.5 1729.47,932.9 1728.76,930.01 1830.73,929.62 						"/>
						<polygon class="st6" points="1833.81,942 1731.83,942.4 1731.11,939.51 1833.09,939.12 						"/>
						<polygon class="st6" points="1836.17,951.5 1734.19,951.89 1733.47,949.01 1835.45,948.62 						"/>
						<polygon class="st6" points="1838.52,961 1736.54,961.39 1735.83,958.51 1837.81,958.11 						"/>
						<polygon class="st6" points="1840.88,970.49 1738.9,970.89 1738.19,968.01 1840.17,967.61 						"/>
					</g>
					<g>
						<polygon class="st6" points="1846.62,993.61 1744.64,994.01 1743.93,991.12 1845.9,990.73 						"/>
						<polygon class="st6" points="1848.98,1003.11 1747,1003.5 1746.28,1000.62 1848.26,1000.23 						"/>
						<polygon class="st6" points="1851.34,1012.61 1749.36,1013 1748.64,1010.12 1850.62,1009.72 						"/>
						<polygon class="st6" points="1853.69,1022.1 1751.72,1022.5 1751,1019.62 1852.98,1019.22 						"/>
						<polygon class="st6" points="1856.05,1031.6 1754.07,1032 1753.36,1029.12 1855.34,1028.72 						"/>
					</g>
				</g>
			</g>
			<g>
				<polygon class="st5" points="1945.73,1297.76 1796.59,1298.33 1748.23,1103.53 1897.37,1102.95 				"/>
				<g>
					<polygon class="st6" points="1860.38,1128.54 1797.84,1128.79 1797.13,1125.9 1859.66,1125.66 					"/>
					<polygon class="st6" points="1870.36,1136.55 1791.85,1136.86 1791.14,1133.98 1869.65,1133.67 					"/>
					<g>
						<polygon class="st6" points="1891.95,1176.2 1789.97,1176.59 1789.26,1173.71 1891.23,1173.32 						"/>
						<polygon class="st6" points="1894.31,1185.7 1792.33,1186.09 1791.61,1183.21 1893.59,1182.81 						"/>
						<polygon class="st6" points="1896.67,1195.2 1794.69,1195.59 1793.97,1192.71 1895.95,1192.31 						"/>
						<polygon class="st6" points="1899.02,1204.69 1797.05,1205.09 1796.33,1202.21 1898.31,1201.81 						"/>
						<polygon class="st6" points="1901.38,1214.19 1799.4,1214.59 1798.69,1211.71 1900.67,1211.31 						"/>
					</g>
					<g>
						<polygon class="st6" points="1907.12,1237.31 1805.14,1237.7 1804.43,1234.82 1906.41,1234.42 						"/>
						<polygon class="st6" points="1909.48,1246.81 1807.5,1247.2 1806.78,1244.32 1908.76,1243.92 						"/>
						<polygon class="st6" points="1911.84,1256.3 1809.86,1256.7 1809.14,1253.82 1911.12,1253.42 						"/>
						<polygon class="st6" points="1914.19,1265.8 1812.22,1266.2 1811.5,1263.31 1913.48,1262.92 						"/>
						<polygon class="st6" points="1916.55,1275.3 1814.57,1275.7 1813.86,1272.81 1915.84,1272.42 						"/>
					</g>
				</g>
			</g>
			<g>
				<g>
					<polygon class="st5" points="1749.63,1299.4 1228.01,1301.42 1077.89,696.72 1145.84,619.74 1580.48,618.05 					"/>
					<polygon class="st6" points="1436.8,720.24 1252.96,720.95 1250.86,712.48 1434.69,711.77 					"/>
					<polygon class="st6" points="1466.15,743.78 1235.34,744.68 1233.24,736.2 1464.04,735.31 					"/>
					<g>
						<polygon class="st6" points="1529.61,860.33 1229.82,861.49 1227.71,853.02 1527.5,851.85 						"/>
						<polygon class="st6" points="1536.54,888.25 1236.75,889.42 1234.65,880.94 1534.44,879.78 						"/>
						<polygon class="st6" points="1543.47,916.17 1243.68,917.34 1241.58,908.86 1541.37,907.7 						"/>
						<polygon class="st6" points="1550.4,944.1 1250.61,945.26 1248.51,936.79 1548.3,935.62 						"/>
						<polygon class="st6" points="1557.34,972.02 1257.55,973.18 1255.44,964.71 1555.23,963.55 						"/>
					</g>
					<g>
						<polygon class="st6" points="1574.21,1039.97 1274.42,1041.13 1272.31,1032.66 1572.1,1031.5 						"/>
						<polygon class="st6" points="1581.14,1067.89 1281.35,1069.06 1279.24,1060.58 1579.03,1059.42 						"/>
						<polygon class="st6" points="1588.07,1095.82 1288.28,1096.98 1286.18,1088.51 1585.97,1087.34 						"/>
						<polygon class="st6" points="1595,1123.74 1295.21,1124.9 1293.11,1116.43 1592.9,1115.26 						"/>
						<polygon class="st6" points="1601.93,1151.66 1302.14,1152.83 1300.04,1144.35 1599.83,1143.19 						"/>
					</g>
				</g>
				<polygon class="st6" points="1077.89,696.72 1164.87,696.38 1145.84,619.74 				"/>
			</g>
		</g>
	</g>
	<g>
		<g>
			<g>
				<path class="st20" d="M2339.48,1773.65h-429.87v-157.8h431.12c30.3,0,54.86,24.56,54.86,54.86v46.85
					C2395.58,1748.53,2370.46,1773.65,2339.48,1773.65z"/>
				<path class="st12" d="M2758.03,1680.77v23.74c0,12.69-3.24,24.56-8.91,34.77c-11.38,20.55-32.56,34.36-56.8,34.36h-795.72
					c-5.27,0-9.53-4.49-9.53-10.02v-3.56c0-5.53,4.27-10.02,9.53-10.02h485.07c2.59-3.33,4.88-6.93,6.81-10.76
					c4.54-9,7.11-19.27,7.11-30.17v-30.18c0-5.55-0.68-10.94-1.96-16.06c-2.17-8.69-6.06-16.64-11.25-23.43h-485.77
					c-5.27,0-9.53-4.49-9.53-10.03v-3.55c0-5.54,4.27-10.03,9.53-10.03h799.73c28.18,0,51.95,19.88,59.33,47.03
					C2757.2,1668.57,2758.03,1674.57,2758.03,1680.77z"/>
				<path class="st21" d="M2755.65,1662.88h-362.04c-2.17-8.69-6.06-16.64-11.25-23.43h-485.77c-5.27,0-9.53-4.49-9.53-10.03v-3.55
					c0-5.54,4.27-10.03,9.53-10.03h799.73C2724.5,1615.85,2748.27,1635.72,2755.65,1662.88z"/>
			</g>
			<polygon class="st22" points="1909.61,1694.75 1968.52,1697.4 1909.61,1699 			"/>
			<polygon class="st22" points="1909.61,1719.51 2049.78,1722.16 1909.61,1723.76 			"/>
		</g>
		<g>
			<g>
				<g>
					<path class="st15" d="M2005.75,1896.06h457.18v-122.74h-460.53c-28.54,0-51.68,23.14-51.68,51.68v16.03
						C1950.71,1871.42,1975.35,1896.06,2005.75,1896.06z"/>
					<path class="st20" d="M2431.97,1896.06h519.48v-122.74h-520.67c-29.02,0-52.54,23.52-52.54,52.54v16.46
						C2378.23,1872,2402.29,1896.06,2431.97,1896.06z"/>
					<path class="st15" d="M2343.88,1896.06h625.43c4.82,0,8.72-4.11,8.72-9.18l0,0c0-5.07-3.91-9.18-8.72-9.18h-625.43
						c-4.82,0-8.72,4.11-8.72,9.18l0,0C2335.16,1891.95,2339.06,1896.06,2343.88,1896.06z"/>
					<path class="st15" d="M2343.88,1791.67h625.43c4.82,0,8.72-4.11,8.72-9.18l0,0c0-5.07-3.91-9.18-8.72-9.18h-625.43
						c-4.82,0-8.72,4.11-8.72,9.18l0,0C2335.16,1787.56,2339.06,1791.67,2343.88,1791.67z"/>
				</g>
				<polygon class="st22" points="2951.45,1834.69 2881.95,1836.75 2951.45,1837.99 				"/>
				<polygon class="st22" points="2951.45,1806.44 2786.11,1808.5 2951.45,1809.75 				"/>
			</g>
			<g>
				<path class="st12" d="M2787.81,1808.09c0,0,7.09,5.27,9.43,13.94c0.42,1.52,0.68,3.14,0.74,4.85c0.39,11.52,0,37.58,0,37.58
					l20.92-13.03l20.86,13.03v-35.33c0-6.68-1.79-13.18-5.11-17.43c-1.61-2.06-3.57-3.61-5.78-3.61H2787.81z"/>
				<path class="st23" d="M2787.81,1808.09c0,0,7.09,5.27,9.43,13.94l41.92,0.52c0,0-1.65-12.41-10.3-14.46H2787.81z"/>
			</g>
		</g>
		<g>
			<g>
				<g>
					<path class="st20" d="M2378.53,1616.18h467.7v-180.33h-469.09c-33.83,0-61.26,27.43-61.26,61.26v56.42
						C2315.88,1588.13,2343.93,1616.18,2378.53,1616.18z"/>
					<path class="st24" d="M2326.74,1505.82v38.81c0.11,16.58,8.83,30.96,21.65,38.65c6.31,3.77,13.6,5.93,21.35,5.93h501.57
						c5.88,0,10.64,5.02,10.64,11.2v4.58c0,6.18-4.77,11.2-10.64,11.2h-866.47c-24.86,0-46.83-13-60.1-32.91
						c-8.37-12.54-13.28-27.81-13.28-44.3v-30.62c0-11.3,2.46-22,6.84-31.53c11.14-24.25,34.74-40.97,62.06-40.97h870.95
						c5.88,0,10.64,5.01,10.64,11.19v4.58c0,6.18-4.77,11.2-10.64,11.2H2368.2c-12.02,0-22.91,5.39-30.51,14
						C2330.96,1484.45,2326.81,1494.62,2326.74,1505.82z"/>
				</g>
				<polygon class="st22" points="2846.23,1526.01 2781.93,1529.05 2846.23,1530.87 				"/>
				<polygon class="st22" points="2846.23,1484.51 2693.26,1487.55 2846.23,1489.37 				"/>
			</g>
			<g>
				<path class="st8" d="M2694.83,1486.94c0,0,10.1,5.72,13.44,15.12c0.59,1.64,0.97,3.4,1.05,5.26c0.56,12.49,0,40.75,0,40.75
					l29.81-14.13l29.73,14.13v-38.31c0-7.24-2.55-14.29-7.29-18.9c-2.3-2.23-5.08-3.92-8.23-3.92H2694.83z"/>
				<path class="st25" d="M2694.83,1486.94c0,0,10.1,5.72,13.44,15.12l59.73,0.56c0,0-2.34-13.46-14.67-15.68H2694.83z"/>
			</g>
		</g>
	</g>
	<g>
		<g>
			<path class="st16" d="M2392.4,1368.98c26.44,48.41,59.69,67.1,59.69,67.1h138.33C2590.41,1436.08,2372.23,1332.05,2392.4,1368.98
				z"/>
			<g>
				<path class="st18" d="M2498.64,1743.55c3.61,4.35,4.06,9.2,2.28,14.39c0,0.02-0.01,0.05-0.04,0.07
					c-3.3,9.59-14.2,20.31-26.86,31c-1.62,1.37-3.06,2.62-4.31,3.78c-0.33,0.3-0.66,0.61-0.97,0.91c-0.26,0.23-0.5,0.48-0.75,0.71
					c-11.81,11.45-7.36,14.08-28.58,37.31c-24.19,26.48-40.84,26.95-45.58,24.54c-4.01-2.06,4.13-16.1,13.16-31.88
					c0.44-0.76,0.87-1.53,1.31-2.3c1.2-2.1,2.4-4.23,3.59-6.34c10.57-19,7.86-27.91,5.35-56.18
					c-2.04-22.97-33.97-128.34-33.97-128.34l46.35-8.4c0,0,13.96,83.9,29.34,96.83c8.22,6.89,17.43,6.97,25.33,12.08
					c0.56,0.35,1.11,0.72,1.64,1.09C2490.45,1735.95,2495.02,1739.19,2498.64,1743.55z"/>
				<path class="st16" d="M2498.64,1743.55c3.61,4.35,4.06,9.2,2.28,14.39c0,0.02-0.01,0.05-0.04,0.07
					c-4.04,9.58-14.67,20.24-26.9,30.91c-1.6,1.4-3.01,2.68-4.27,3.88c-0.33,0.3-0.66,0.61-0.97,0.91c-0.26,0.23-0.5,0.48-0.75,0.71
					c-11.81,11.45-7.36,14.08-28.58,37.31c-24.19,26.48-40.84,26.95-45.58,24.54c-4.01-2.06,4.13-16.1,13.16-31.88
					c4.71-1.82,26.58-11.16,43.11-33.42c14.56-19.55,24.28-44.68,34.19-59.23c0.56,0.35,1.11,0.72,1.64,1.09
					C2490.45,1735.95,2495.02,1739.19,2498.64,1743.55z"/>
				<path class="st18" d="M2124.9,1713.09c-2.86,15.05-23.26,12.54-46.04,6.68c-22.78-5.86-17.37,1.11-49.8-2.67
					c-32.43-3.78-42.25-16.5-43.24-21.57c-0.89-4.5,15.14-6.09,32.32-8.17c2.16-0.26,4.33-0.54,6.5-0.82
					c19.4-2.56,33.61-15.74,51.24-26.56c16.69-10.25,41.61-52,41.61-52l44.47,3.71c0,0-23.34,37.29-32.36,53.51
					c-5.31,9.54-5.03,22.15-4.37,31.89C2125.59,1702.38,2125.92,1707.79,2124.9,1713.09z"/>
				<path class="st16" d="M2078.86,1719.77c-22.78-5.86-17.37,1.11-49.8-2.67c-32.43-3.78-42.25-16.5-43.24-21.57
					c-0.89-4.5,15.14-6.09,32.32-8.17l0.16,0.35c0,0,19.45,14.51,46.44,15.19c22,0.56,45.3-6.07,60.49-5.81
					c0.34,5.29,0.67,10.7-0.34,16.01C2122.04,1728.14,2101.65,1725.63,2078.86,1719.77z"/>
				<path class="st16" d="M2295.33,1413.9l41.57,117.7l54.27,153.68c0,0,14.73,1.5,28.83-2.77c12.98-3.95,27.89-14.28,27.89-14.28
					s-15.07-165.01-43.18-259.73c-7.2-24.31-15.28-43.98-24.19-55.05C2336.94,1299.25,2295.33,1413.9,2295.33,1413.9z"/>
				<path class="st15" d="M2337.59,1226.98c27.24-9.24,104.92,2.63,182.95,18.7l16.34-28.35l168.55-13.85
					c0,0,55.62,129.77,25.17,212.46c-4.48,12.15-13.37,19.95-28.53,20.2c-0.01,0.01-2.45-0.01-2.46,0c0,0-100.32-0.06-132.89-0.06
					c-83.82,0-177.39-60.62-189.5-63.17c-19.81-4.17-27.74,37.52-47.55,81.3c-19.81,43.78-186.24,193.87-186.24,193.87
					s-25.58,0.27-36.15-3.9c-11.36-4.48-15.52-10.31-15.52-10.31S2276.17,1247.83,2337.59,1226.98z"/>
				<path class="st16" d="M2537.87,973.11c60.02,34.77,181.78,106.85,182.41,106.38c0,0,44.75,17.74,70.14,0
					c42.32-29.57,65.01-109.15-12.38-177.63c-38.6-34.15-66.02-42.47-70.18-97c-2.26-29.59-40.7-127.23-104.57-118.2
					c-5.34,0.75-38.19,2.37-59.78,14.3C2488.49,731.35,2447.89,959.65,2537.87,973.11z"/>
				<path class="st18" d="M2588.17,943.51c-0.26,0.18,29.53,10.88,49.45,1.6c18.74-8.71,32.94-41.16,32.66-41.17
					c-8.53-0.41-17.89-8.26-25.09-59.72l-3.63,1.37l-61.04,23.11c0,0,4.42,20.61,7.28,40.23
					C2590.21,925.4,2591.51,941.18,2588.17,943.51z"/>
				<path class="st26" d="M2580.52,868.7c0,0,4.42,20.61,7.28,40.23c35.06-6.64,48.82-43.39,53.76-63.34L2580.52,868.7z"/>
				<path class="st18" d="M2571.43,889.15c0,0,83.52-11.79,75.74-66.4c-7.78-54.61-2.24-92.91-55.89-87.69
					c-53.65,5.22-61.02,27.69-62.64,46.58C2527.02,800.54,2549.51,890.81,2571.43,889.15z"/>
				<path class="st16" d="M2531.68,751.71c0,0,53.46,48.48,89.83,52.38c36.37,3.91,50.13-8.37,50.13-8.37s-21.44-18.73-34.33-48.94
					c-3.8-8.91-11.83-15.02-21.08-15.86C2590.26,728.56,2541.04,727.48,2531.68,751.71z"/>
				<path class="st16" d="M2565.1,747.37c0,0-17.89,18.19-23.52,31.69c-5.44,13.02-7.07,44.17-2.74,56.54
					c0,0-27.87-57.01-12.09-84.71C2543.48,721.52,2565.1,747.37,2565.1,747.37z"/>
				<path class="st5" d="M2517.85,1072.95c2.52,177.87,0.69,140.7,19.18,157.58c4.46,4.06,16.98,6.49,33.47,7.63
					c51.84,3.62,142.96-5.36,146.43-15.44c11.96-34.88,3.52-45.71,13.49-99.11c1.04-5.68,2.33-11.83,3.84-18.52
					c8.32-36.67,16.41-49.15-13.1-108.07c-26.76-53.37-54.56-96.69-57.06-95.12c-70.6,44.1-76.3,7.03-76.3,7.03
					S2516.61,986.19,2517.85,1072.95z"/>
				<path class="st15" d="M2336.9,1531.6l54.27,153.68c0,0,14.73,1.5,28.83-2.77c12.98-3.95,27.89-14.28,27.89-14.28
					s-15.07-165.01-43.18-259.73L2336.9,1531.6z"/>
				<path class="st5" d="M2587.81,908.93c0,0-72.65,12.96-81.18,45.87c-8.53,32.91-58.73,226.38-58.73,226.38
					s36.93,6.98,53.99-10.97c17.06-17.95,59.37-166.55,59.37-166.55L2587.81,908.93z"/>
				<path class="st27" d="M2570.51,1238.17c51.84,3.62,142.96-5.36,146.43-15.44c11.96-34.88,3.52-45.71,13.49-99.11l-25-74.08
					c0,0,4.13,82.49-18.99,104.19c-23.1,21.7-94.67,41.88-105.91,60.01C2575.11,1222.44,2571.54,1231.16,2570.51,1238.17z"/>
				<path class="st18" d="M2629.9,1203.47c0,0-51.14-11.98-59.39-7.21c-8.25,4.77-28.42,22.17-30.95,28.22
					c-2.53,6.05,18.37-4.59,25.17-6.51c4.4-1.24,15.99,2.99,21.73,5.01c24.14,8.46,38.93,4.11,38.93,4.11L2629.9,1203.47z"/>
				<path class="st5" d="M2664.15,901.87c0,0,68.67,4.45,92.44,39.34c33.46,49.11,99.85,258.39,61.8,286.3
					c-42.84,31.43-195,8.22-195,8.22s-5.06-24.9,1.98-36.95c7.04-12.04,121.53-31.5,126.81-37.06
					c5.28-5.56-66.05-108.41-66.05-125.08C2686.14,1019.96,2664.15,901.87,2664.15,901.87z"/>
				<path class="st18" d="M2568.03,1211.24c0,0-10.72,14.54-14.23,16.28c-3.51,1.74-5.78,1.3-5.78,1.3l7.22-13.67L2568.03,1211.24z"
					/>
				<path class="st18" d="M2570.51,1196.27l-31.16,15.92c0,0,1.32,2.28,5.16,2.1c3.84-0.18,13.51-3.91,13.51-3.91L2570.51,1196.27z"
					/>
			</g>
			<g>
				<g>
					<polygon class="st8" points="2553.8,1249.8 2307.35,1249.8 2233.22,1055.83 2479.28,1055.83 					"/>
					<polygon class="st25" points="2304.46,1242.25 2629.9,1242.25 2629.9,1249.8 2307.35,1249.8 					"/>
				</g>
				<path class="st5" d="M2369.57,1152.82c-1.86-6.82,1.89-12.35,8.37-12.35c6.48,0,13.24,5.53,15.1,12.35
					c1.86,6.82-1.89,12.35-8.37,12.35C2378.18,1165.16,2371.42,1159.64,2369.57,1152.82z"/>
			</g>
		</g>
	</g>
	<g>
		<g>
			<path class="st14" d="M314.26,1325.98l-5.25,3.83c-5.6,4.09-13.32,2.61-17.2-3.28l-30.52-46.34c-3.88-5.89-2.48-14.02,3.12-18.1
				l7.52-5.48c1.1-0.8,2.61-0.51,3.37,0.64c0.76,1.15,0.49,2.74-0.61,3.54l-7.52,5.48c-3.41,2.49-4.26,7.43-1.9,11.02l30.52,46.34
				c2.36,3.59,7.06,4.48,10.47,2l5.25-3.83c3.41-2.49,4.26-7.43,1.9-11.02l-20.26-30.76c-0.76-1.15-0.49-2.74,0.61-3.54
				c1.1-0.8,2.61-0.51,3.37,0.64l20.26,30.76C321.26,1313.77,319.86,1321.89,314.26,1325.98z"/>
		</g>
		<g>
			<path class="st14" d="M347.72,1371.67l-9.41,6.86c-8.74,6.37-21.12,3.54-27.61-6.31l-45.89-69.66c-0.76-1.15-0.49-2.74,0.61-3.54
				c1.1-0.8,2.61-0.51,3.37,0.64l45.89,69.66c4.97,7.54,14.33,9.79,20.87,5.02l9.41-6.86c6.54-4.77,7.82-14.79,2.86-22.33
				l-52.27-79.35c-4.97-7.54-14.33-9.79-20.88-5.02c-1.1,0.8-2.61,0.51-3.37-0.64c-0.76-1.16-0.49-2.74,0.61-3.54
				c8.74-6.37,21.12-3.54,27.61,6.31l52.27,79.35C358.28,1352.11,356.45,1365.3,347.72,1371.67z"/>
		</g>
	</g>
	<g>
		<g>
			<path class="st14" d="M410.85,1735.52l1.13,9.81c1.21,10.48-5.91,20.03-15.87,21.3l-78.26,9.99
				c-9.96,1.27-19.04-6.22-20.25-16.69l-1.62-14.05c-0.24-2.05,1.15-3.92,3.1-4.17c1.95-0.25,3.73,1.21,3.96,3.27l1.62,14.05
				c0.74,6.38,6.26,10.93,12.32,10.16l78.26-9.99c6.06-0.77,10.39-6.59,9.66-12.97l-1.13-9.81c-0.73-6.38-6.26-10.93-12.32-10.16
				l-51.95,6.63c-1.95,0.25-3.73-1.21-3.96-3.27c-0.24-2.05,1.15-3.92,3.1-4.17l51.95-6.63
				C400.55,1717.55,409.64,1725.04,410.85,1735.52z"/>
		</g>
		<g>
			<path class="st14" d="M490.33,1721.06l2.03,17.59c1.88,16.33-10.11,31.35-26.75,33.47l-117.65,15.02
				c-1.95,0.25-3.73-1.21-3.96-3.27c-0.24-2.05,1.15-3.92,3.11-4.17l117.65-15.02c12.74-1.63,21.95-12.9,20.54-25.14l-2.03-17.59
				c-1.41-12.23-12.92-20.86-25.66-19.24l-134.01,17.11c-12.74,1.63-21.95,12.9-20.54,25.13c0.24,2.05-1.15,3.92-3.1,4.17
				c-1.95,0.25-3.73-1.21-3.96-3.27c-1.88-16.33,10.11-31.35,26.75-33.47l134.01-17.11
				C473.38,1693.17,488.44,1704.73,490.33,1721.06z"/>
		</g>
	</g>
	<ellipse class="st8" cx="1755.2" cy="570.37" rx="10.85" ry="11.41"/>
	<path class="st28" d="M3220.75,1904.04H56.77c-1.81,0-3.29-1.48-3.29-3.29v-2.28c0-1.81,1.48-3.29,3.29-3.29h3163.98
		c1.81,0,3.29,1.48,3.29,3.29v2.28C3224.04,1902.56,3222.56,1904.04,3220.75,1904.04z"/>
</g>
</svg>
